<svg width="883" height="279" viewBox="0 0 883 279" fill="none" xmlns="http://www.w3.org/2000/svg">
<g clip-path="url(#clip0)">
<path d="M252.128 229.942L206.425 270.764L204.911 268.927L204.537 268.485L204.52 268.45L175.18 233.038C158.905 240.773 141.128 244.832 123.109 244.926C105.09 245.02 87.2706 241.147 70.9161 233.582L112.859 182.947C126.969 185.191 141.42 182.43 153.708 175.141C165.997 167.853 175.349 156.497 180.147 143.039C184.903 129.681 184.885 115.088 180.096 101.742L222.022 51.1403C236.91 71.9218 244.921 96.841 244.933 122.405C244.945 147.969 236.958 172.895 222.09 193.691L250.444 227.915L250.461 227.948L250.835 228.39L252.128 229.942Z" fill="url(#paint0_linear)"/>
<path d="M175.054 11.8386L164.935 24.0677C143.654 14.8829 119.969 12.8452 97.4328 18.2603C74.8963 23.6754 54.7228 36.2514 39.9384 54.102C25.154 71.9525 16.5555 94.1153 15.4328 117.266C14.3101 140.417 20.7237 163.308 33.7114 182.505L23.5909 194.718C8.25013 173.728 -0.0122269 148.4 1.35808e-05 122.401C0.0122541 96.403 8.29846 71.0831 23.659 50.1076V50.0907C40.5111 27.1078 64.8456 10.7158 92.4765 3.73449C120.107 -3.24687 149.308 -0.381182 175.054 11.8386V11.8386Z" fill="url(#paint1_linear)"/>
<path d="M154.695 36.433L133.366 62.1847L133.349 62.2015C129.756 61.5582 126.113 61.2337 122.463 61.2316C119.291 61.2251 116.123 61.4702 112.989 61.9647C103.972 63.3812 95.3843 66.7949 87.8553 71.9562C80.3263 77.1175 74.0458 83.8961 69.4729 91.7964C64.9 99.6966 62.1503 108.519 61.4248 117.618C60.6993 126.718 62.0164 135.864 65.2797 144.389L43.9513 170.14C34.052 153.814 29.4844 134.81 30.8832 115.768C32.282 96.7264 39.5778 78.5935 51.7566 63.8893C63.9355 49.1851 80.3924 38.6399 98.8403 33.7194C117.288 28.7989 136.811 29.7473 154.695 36.433V36.433Z" fill="url(#paint2_linear)"/>
<path d="M164.935 24.0677L154.695 36.4277C136.809 29.7307 117.281 28.7742 98.8271 33.6914C80.3728 38.6085 63.9097 49.1548 51.7277 63.8633C39.5457 78.5718 32.2505 96.7112 30.8568 115.758C29.4631 134.806 34.0402 153.814 43.9514 170.139L33.7115 182.505C20.7323 163.307 14.3256 140.418 15.452 117.272C16.5784 94.1247 25.1771 71.9666 39.9591 54.119C54.7411 36.2714 74.9098 23.696 97.4418 18.2781C119.974 12.8601 143.655 14.8915 164.935 24.0677V24.0677Z" fill="url(#paint3_linear)"/>
<path d="M254.986 278.809L226.172 274.046L225.288 273.893L207.105 270.883L206.426 270.763L204.912 268.926L204.538 268.484L204.521 268.45L204.862 268.161L250.411 227.952L250.445 227.919L250.462 227.952L250.836 228.394L252.128 229.943L253.336 250.558L254.986 278.809Z" fill="url(#paint4_linear)"/>
<path d="M347.681 73.3265C357.371 73.3265 365.903 74.8538 373.277 77.9085C380.755 80.8578 387.233 85.2291 392.711 91.0225L379.597 108.56C375.067 103.82 370.169 100.292 364.903 97.9745C359.741 95.5518 353.843 94.3405 347.207 94.3405C341.413 94.3405 337.253 95.2885 334.725 97.1845C332.197 99.0805 330.933 101.398 330.933 104.136C330.933 106.348 331.933 108.244 333.935 109.824C336.041 111.299 339.412 112.563 344.047 113.616L361.585 117.566C372.013 119.989 379.649 123.518 384.495 128.152C389.34 132.787 391.763 138.949 391.763 146.638C391.763 154.012 389.867 160.279 386.075 165.44C382.283 170.496 377.069 174.341 370.433 176.974C363.797 179.502 356.213 180.766 347.681 180.766C337.147 180.766 327.509 179.081 318.767 175.71C310.024 172.234 303.072 167.705 297.911 162.122L311.025 143.952C314.922 148.482 320.189 152.274 326.825 155.328C333.461 158.278 340.307 159.752 347.365 159.752C358.319 159.752 363.797 156.54 363.797 150.114C363.797 147.902 362.954 146.059 361.269 144.584C359.689 143.004 356.739 141.688 352.421 140.634L333.145 136.368C327.246 135.104 321.979 133.314 317.345 130.996C312.815 128.679 309.234 125.624 306.601 121.832C303.967 117.935 302.651 113.09 302.651 107.296C302.651 100.766 304.441 94.9725 308.023 89.9165C311.604 84.7551 316.765 80.6998 323.507 77.7505C330.248 74.8011 338.306 73.3265 347.681 73.3265ZM445.409 180.766C432.242 180.766 421.814 177.185 414.125 170.022C406.541 162.86 402.749 152.748 402.749 139.686C402.749 131.049 404.487 123.676 407.963 117.566C411.544 111.352 416.389 106.664 422.499 103.504C428.713 100.239 435.929 98.6065 444.145 98.6065C452.466 98.6065 459.523 100.239 465.317 103.504C471.215 106.664 475.692 111.088 478.747 116.776C481.801 122.359 483.329 128.784 483.329 136.052C483.329 138.054 483.223 140.002 483.013 141.898C482.907 143.689 482.802 145.216 482.697 146.48H428.819C429.556 151.958 431.347 155.908 434.191 158.33C437.035 160.648 440.774 161.806 445.409 161.806C449.411 161.806 452.571 161.016 454.889 159.436C457.311 157.856 459.102 155.644 460.261 152.8L481.749 159.91C480.274 164.44 477.693 168.284 474.007 171.444C470.425 174.499 466.107 176.816 461.051 178.396C456.1 179.976 450.886 180.766 445.409 180.766ZM444.145 117.408C435.613 117.408 430.557 122.306 428.977 132.102H457.891C456.732 122.306 452.15 117.408 444.145 117.408ZM498.355 179.186V100.186H522.055L523.161 117.25C525.057 111.457 527.953 106.928 531.851 103.662C535.853 100.292 540.962 98.6065 547.177 98.6065C549.178 98.6065 550.863 98.8171 552.233 99.2385C553.707 99.5545 554.866 99.9231 555.709 100.344L553.023 122.464C551.969 122.148 550.6 121.832 548.915 121.516C547.335 121.2 545.386 121.042 543.069 121.042C538.223 121.042 534.01 122.57 530.429 125.624C526.953 128.679 525.215 133.261 525.215 139.37V179.186H498.355ZM566.245 212.366V100.186H590.419L591.209 116.144C593.421 110.878 596.739 106.664 601.163 103.504C605.693 100.239 611.012 98.6065 617.121 98.6065C626.812 98.6065 634.607 102.188 640.505 109.35C646.509 116.513 649.511 126.52 649.511 139.37C649.511 152.432 646.457 162.596 640.347 169.864C634.343 177.132 626.496 180.766 616.805 180.766C611.117 180.766 606.272 179.397 602.269 176.658C598.267 173.814 595.212 170.128 593.105 165.598V212.366H566.245ZM607.641 161.016C612.276 161.016 615.91 159.331 618.543 155.96C621.177 152.484 622.493 147.06 622.493 139.686C622.493 132.313 621.177 126.941 618.543 123.57C616.015 120.094 612.434 118.356 607.799 118.356C603.27 118.356 599.689 120.2 597.055 123.886C594.422 127.468 593.105 132.734 593.105 139.686C593.105 146.322 594.369 151.536 596.897 155.328C599.425 159.12 603.007 161.016 607.641 161.016ZM693.759 74.9065V121.2L731.047 74.9065H761.225L725.833 117.25L763.121 179.186H732.311L706.399 134.472L693.759 149.798V179.186H666.583V74.9065H693.759ZM787.668 91.0225C782.19 91.0225 778.188 90.0218 775.66 88.0205C773.237 85.9138 772.026 82.6485 772.026 78.2245C772.026 73.6951 773.237 70.4298 775.66 68.4285C778.188 66.3218 782.19 65.2685 787.668 65.2685C793.04 65.2685 796.99 66.3218 799.518 68.4285C802.046 70.4298 803.31 73.6951 803.31 78.2245C803.31 82.6485 802.046 85.9138 799.518 88.0205C796.99 90.0218 793.04 91.0225 787.668 91.0225ZM801.098 100.186V179.186H774.238V100.186H801.098ZM876.782 100.186V119.304H853.24V151.062C853.24 154.854 854.135 157.593 855.926 159.278C857.822 160.858 860.403 161.648 863.668 161.648C866.196 161.648 868.355 161.385 870.146 160.858C871.937 160.226 873.622 159.331 875.202 158.172L878.046 174.762C875.413 176.553 872.042 178.028 867.934 179.186C863.931 180.24 859.876 180.766 855.768 180.766C846.709 180.766 839.547 178.87 834.28 175.078C829.119 171.181 826.485 164.65 826.38 155.486V119.304H812.792V100.186H826.38V82.4905L853.24 75.0645V100.186H876.782Z" fill="#1E2435"/>
</g>
<defs>
<linearGradient id="paint0_linear" x1="70.9161" y1="160.952" x2="252.128" y2="160.952" gradientUnits="userSpaceOnUse">
<stop stop-color="#0055FF"/>
<stop offset="1" stop-color="#00D0FF"/>
</linearGradient>
<linearGradient id="paint1_linear" x1="105.558" y1="181.087" x2="85.9991" y2="85.248" gradientUnits="userSpaceOnUse">
<stop stop-color="#0055FF"/>
<stop offset="1" stop-color="#00D0FF"/>
</linearGradient>
<linearGradient id="paint2_linear" x1="71.6996" y1="173.768" x2="101.095" y2="64.1284" gradientUnits="userSpaceOnUse">
<stop stop-color="#0055FF"/>
<stop offset="1" stop-color="#00D0FF"/>
</linearGradient>
<linearGradient id="paint3_linear" x1="74.4211" y1="187.856" x2="93.7504" y2="71.1072" gradientUnits="userSpaceOnUse">
<stop stop-color="#0055FF"/>
<stop offset="1" stop-color="#00D0FF"/>
</linearGradient>
<linearGradient id="paint4_linear" x1="211.283" y1="315.856" x2="243.577" y2="243.233" gradientUnits="userSpaceOnUse">
<stop stop-color="#0055FF"/>
<stop offset="1" stop-color="#00D0FF"/>
</linearGradient>
<clipPath id="clip0">
<rect width="882.82" height="278.808" fill="white"/>
</clipPath>
</defs>
</svg>
